<svg width="24" height="24" viewBox="0 0 24 24" fill="none" xmlns="http://www.w3.org/2000/svg">
<g clip-path="url(#clip0_2617_13941)">
<path d="M19.6082 3H11.7588C11.7588 4.92022 13.3468 6.4832 15.2979 6.4832H16.7498V7.84522C16.7498 9.76544 18.3378 11.3284 20.2888 11.3284V3.66985C20.2888 3.29027 19.9939 3 19.6082 3Z" fill="#1F1F1F"/>
<path d="M19.6082 3H11.7588C11.7588 4.92022 13.3468 6.4832 15.2979 6.4832H16.7498V7.84522C16.7498 9.76544 18.3378 11.3284 20.2888 11.3284V3.66985C20.2888 3.29027 19.9939 3 19.6082 3Z" fill="black" fill-opacity="0.2"/>
<path d="M19.6082 3H11.7588C11.7588 4.92022 13.3468 6.4832 15.2979 6.4832H16.7498V7.84522C16.7498 9.76544 18.3378 11.3284 20.2888 11.3284V3.66985C20.2888 3.29027 19.9939 3 19.6082 3Z" fill="black" fill-opacity="0.2"/>
<path d="M19.6082 3H11.7588C11.7588 4.92022 13.3468 6.4832 15.2979 6.4832H16.7498V7.84522C16.7498 9.76544 18.3378 11.3284 20.2888 11.3284V3.66985C20.2888 3.29027 19.9939 3 19.6082 3Z" fill="black" fill-opacity="0.2"/>
<path d="M19.6082 3H11.7588C11.7588 4.92022 13.3468 6.4832 15.2979 6.4832H16.7498V7.84522C16.7498 9.76544 18.3378 11.3284 20.2888 11.3284V3.66985C20.2888 3.29027 19.9939 3 19.6082 3Z" fill="black" fill-opacity="0.2"/>
<path d="M19.6082 3H11.7588C11.7588 4.92022 13.3468 6.4832 15.2979 6.4832H16.7498V7.84522C16.7498 9.76544 18.3378 11.3284 20.2888 11.3284V3.66985C20.2888 3.29027 19.9939 3 19.6082 3Z" fill="black" fill-opacity="0.2"/>
<path d="M19.6082 3H11.7588C11.7588 4.92022 13.3468 6.4832 15.2979 6.4832H16.7498V7.84522C16.7498 9.76544 18.3378 11.3284 20.2888 11.3284V3.66985C20.2888 3.29027 19.9939 3 19.6082 3Z" fill="black" fill-opacity="0.2"/>
<path d="M15.7284 6.84082H7.87891C7.87891 8.761 9.46695 10.324 11.418 10.324H12.8699V11.7083C12.8699 13.6286 14.4579 15.1915 16.409 15.1915V7.51066C16.409 7.15341 16.114 6.84082 15.7284 6.84082Z" fill="#1F1F1F"/>
<path d="M15.7284 6.84082H7.87891C7.87891 8.761 9.46695 10.324 11.418 10.324H12.8699V11.7083C12.8699 13.6286 14.4579 15.1915 16.409 15.1915V7.51066C16.409 7.15341 16.114 6.84082 15.7284 6.84082Z" fill="black" fill-opacity="0.2"/>
<path d="M15.7284 6.84082H7.87891C7.87891 8.761 9.46695 10.324 11.418 10.324H12.8699V11.7083C12.8699 13.6286 14.4579 15.1915 16.409 15.1915V7.51066C16.409 7.15341 16.114 6.84082 15.7284 6.84082Z" fill="black" fill-opacity="0.2"/>
<path d="M15.7284 6.84082H7.87891C7.87891 8.761 9.46695 10.324 11.418 10.324H12.8699V11.7083C12.8699 13.6286 14.4579 15.1915 16.409 15.1915V7.51066C16.409 7.15341 16.114 6.84082 15.7284 6.84082Z" fill="black" fill-opacity="0.2"/>
<path d="M15.7284 6.84082H7.87891C7.87891 8.761 9.46695 10.324 11.418 10.324H12.8699V11.7083C12.8699 13.6286 14.4579 15.1915 16.409 15.1915V7.51066C16.409 7.15341 16.114 6.84082 15.7284 6.84082Z" fill="black" fill-opacity="0.2"/>
<path d="M15.7284 6.84082H7.87891C7.87891 8.761 9.46695 10.324 11.418 10.324H12.8699V11.7083C12.8699 13.6286 14.4579 15.1915 16.409 15.1915V7.51066C16.409 7.15341 16.114 6.84082 15.7284 6.84082Z" fill="black" fill-opacity="0.2"/>
<path d="M15.7284 6.84082H7.87891C7.87891 8.761 9.46695 10.324 11.418 10.324H12.8699V11.7083C12.8699 13.6286 14.4579 15.1915 16.409 15.1915V7.51066C16.409 7.15341 16.114 6.84082 15.7284 6.84082Z" fill="black" fill-opacity="0.2"/>
<path d="M11.8495 10.7036H4C4 12.6239 5.58804 14.1868 7.53906 14.1868H8.99098V15.5489C8.99098 17.4691 10.579 19.0321 12.53 19.0321V11.3735C12.53 10.9939 12.2125 10.7036 11.8495 10.7036Z" fill="#1F1F1F"/>
<path d="M11.8495 10.7036H4C4 12.6239 5.58804 14.1868 7.53906 14.1868H8.99098V15.5489C8.99098 17.4691 10.579 19.0321 12.53 19.0321V11.3735C12.53 10.9939 12.2125 10.7036 11.8495 10.7036Z" fill="black" fill-opacity="0.2"/>
<path d="M11.8495 10.7036H4C4 12.6239 5.58804 14.1868 7.53906 14.1868H8.99098V15.5489C8.99098 17.4691 10.579 19.0321 12.53 19.0321V11.3735C12.53 10.9939 12.2125 10.7036 11.8495 10.7036Z" fill="black" fill-opacity="0.2"/>
<path d="M11.8495 10.7036H4C4 12.6239 5.58804 14.1868 7.53906 14.1868H8.99098V15.5489C8.99098 17.4691 10.579 19.0321 12.53 19.0321V11.3735C12.53 10.9939 12.2125 10.7036 11.8495 10.7036Z" fill="black" fill-opacity="0.2"/>
<path d="M11.8495 10.7036H4C4 12.6239 5.58804 14.1868 7.53906 14.1868H8.99098V15.5489C8.99098 17.4691 10.579 19.0321 12.53 19.0321V11.3735C12.53 10.9939 12.2125 10.7036 11.8495 10.7036Z" fill="black" fill-opacity="0.2"/>
<path d="M11.8495 10.7036H4C4 12.6239 5.58804 14.1868 7.53906 14.1868H8.99098V15.5489C8.99098 17.4691 10.579 19.0321 12.53 19.0321V11.3735C12.53 10.9939 12.2125 10.7036 11.8495 10.7036Z" fill="black" fill-opacity="0.2"/>
<path d="M11.8495 10.7036H4C4 12.6239 5.58804 14.1868 7.53906 14.1868H8.99098V15.5489C8.99098 17.4691 10.579 19.0321 12.53 19.0321V11.3735C12.53 10.9939 12.2125 10.7036 11.8495 10.7036Z" fill="black" fill-opacity="0.2"/>
</g>
<defs>
<clipPath id="clip0_2617_13941">
<rect width="24" height="24" fill="white"/>
</clipPath>
</defs>
</svg>
