<svg width="24" height="24" viewBox="0 0 24 24" fill="none" xmlns="http://www.w3.org/2000/svg">
<g clip-path="url(#clip0_2324_15647)">
<path fill-rule="evenodd" clip-rule="evenodd" d="M15.6882 2.34298C15.205 1.87274 14.5574 1.60963 13.8832 1.60963C13.209 1.60963 12.5614 1.87274 12.0782 2.34298L2.45222 11.783C2.29113 11.9395 2.07535 12.0271 1.85072 12.0271C1.62608 12.0271 1.4103 11.9395 1.24922 11.783C1.17035 11.7063 1.10766 11.6146 1.06486 11.5132C1.02205 11.4119 1 11.303 1 11.193C1 11.083 1.02205 10.9741 1.06486 10.8727C1.10766 10.7714 1.17035 10.6797 1.24922 10.603L10.8752 1.16298C11.6804 0.379372 12.7596 -0.059082 13.8832 -0.059082C15.0068 -0.059082 16.086 0.379372 16.8912 1.16298C17.3571 1.61608 17.7091 2.17308 17.9184 2.78837C18.1277 3.40366 18.1883 4.05977 18.0952 4.70298C18.747 4.61028 19.4113 4.66847 20.037 4.87305C20.6627 5.07764 21.2331 5.42315 21.7042 5.88298L21.7542 5.93298C22.1485 6.31646 22.462 6.7751 22.676 7.28179C22.89 7.78848 23.0003 8.33294 23.0003 8.88298C23.0003 9.43302 22.89 9.97748 22.676 10.4842C22.462 10.9909 22.1485 11.4495 21.7542 11.833L13.0482 20.37C13.0219 20.3955 13.001 20.4261 12.9868 20.4598C12.9725 20.4936 12.9652 20.5298 12.9652 20.5665C12.9652 20.6031 12.9725 20.6394 12.9868 20.6731C13.001 20.7069 13.0219 20.7374 13.0482 20.763L14.8362 22.517C14.9151 22.5937 14.9778 22.6854 15.0206 22.7867C15.0634 22.8881 15.0854 22.997 15.0854 23.107C15.0854 23.217 15.0634 23.3259 15.0206 23.4272C14.9778 23.5286 14.9151 23.6203 14.8362 23.697C14.6751 23.8535 14.4594 23.9411 14.2347 23.9411C14.0101 23.9411 13.7943 23.8535 13.6332 23.697L11.8452 21.944C11.6611 21.765 11.5147 21.551 11.4147 21.3144C11.3147 21.0779 11.2632 20.8238 11.2632 20.567C11.2632 20.3102 11.3147 20.056 11.4147 19.8195C11.5147 19.583 11.6611 19.3689 11.8452 19.19L20.5512 10.652C20.7877 10.4218 20.9756 10.1466 21.104 9.84261C21.2323 9.5386 21.2984 9.21196 21.2984 8.88198C21.2984 8.552 21.2323 8.22536 21.104 7.92135C20.9756 7.61735 20.7877 7.34214 20.5512 7.11198L20.5012 7.06298C20.0186 6.59324 19.3718 6.33015 18.6983 6.32959C18.0248 6.32902 17.3776 6.59104 16.8942 7.05998L9.72222 14.094L9.72022 14.096L9.62222 14.193C9.46109 14.3498 9.24509 14.4376 9.02022 14.4376C8.79534 14.4376 8.57934 14.3498 8.41822 14.193C8.33935 14.1163 8.27666 14.0246 8.23386 13.9232C8.19105 13.8219 8.169 13.713 8.169 13.603C8.169 13.493 8.19105 13.3841 8.23386 13.2827C8.27666 13.1814 8.33935 13.0897 8.41822 13.013L15.6912 5.87998C15.927 5.64967 16.1144 5.37449 16.2422 5.07065C16.37 4.76681 16.4357 4.44047 16.4354 4.11085C16.4351 3.78122 16.3689 3.45499 16.2405 3.15137C16.1122 2.84775 15.9244 2.57289 15.6882 2.34298Z" fill="#1F1F1F"/>
<path fill-rule="evenodd" clip-rule="evenodd" d="M15.6882 2.34298C15.205 1.87274 14.5574 1.60963 13.8832 1.60963C13.209 1.60963 12.5614 1.87274 12.0782 2.34298L2.45222 11.783C2.29113 11.9395 2.07535 12.0271 1.85072 12.0271C1.62608 12.0271 1.4103 11.9395 1.24922 11.783C1.17035 11.7063 1.10766 11.6146 1.06486 11.5132C1.02205 11.4119 1 11.303 1 11.193C1 11.083 1.02205 10.9741 1.06486 10.8727C1.10766 10.7714 1.17035 10.6797 1.24922 10.603L10.8752 1.16298C11.6804 0.379372 12.7596 -0.059082 13.8832 -0.059082C15.0068 -0.059082 16.086 0.379372 16.8912 1.16298C17.3571 1.61608 17.7091 2.17308 17.9184 2.78837C18.1277 3.40366 18.1883 4.05977 18.0952 4.70298C18.747 4.61028 19.4113 4.66847 20.037 4.87305C20.6627 5.07764 21.2331 5.42315 21.7042 5.88298L21.7542 5.93298C22.1485 6.31646 22.462 6.7751 22.676 7.28179C22.89 7.78848 23.0003 8.33294 23.0003 8.88298C23.0003 9.43302 22.89 9.97748 22.676 10.4842C22.462 10.9909 22.1485 11.4495 21.7542 11.833L13.0482 20.37C13.0219 20.3955 13.001 20.4261 12.9868 20.4598C12.9725 20.4936 12.9652 20.5298 12.9652 20.5665C12.9652 20.6031 12.9725 20.6394 12.9868 20.6731C13.001 20.7069 13.0219 20.7374 13.0482 20.763L14.8362 22.517C14.9151 22.5937 14.9778 22.6854 15.0206 22.7867C15.0634 22.8881 15.0854 22.997 15.0854 23.107C15.0854 23.217 15.0634 23.3259 15.0206 23.4272C14.9778 23.5286 14.9151 23.6203 14.8362 23.697C14.6751 23.8535 14.4594 23.9411 14.2347 23.9411C14.0101 23.9411 13.7943 23.8535 13.6332 23.697L11.8452 21.944C11.6611 21.765 11.5147 21.551 11.4147 21.3144C11.3147 21.0779 11.2632 20.8238 11.2632 20.567C11.2632 20.3102 11.3147 20.056 11.4147 19.8195C11.5147 19.583 11.6611 19.3689 11.8452 19.19L20.5512 10.652C20.7877 10.4218 20.9756 10.1466 21.104 9.84261C21.2323 9.5386 21.2984 9.21196 21.2984 8.88198C21.2984 8.552 21.2323 8.22536 21.104 7.92135C20.9756 7.61735 20.7877 7.34214 20.5512 7.11198L20.5012 7.06298C20.0186 6.59324 19.3718 6.33015 18.6983 6.32959C18.0248 6.32902 17.3776 6.59104 16.8942 7.05998L9.72222 14.094L9.72022 14.096L9.62222 14.193C9.46109 14.3498 9.24509 14.4376 9.02022 14.4376C8.79534 14.4376 8.57934 14.3498 8.41822 14.193C8.33935 14.1163 8.27666 14.0246 8.23386 13.9232C8.19105 13.8219 8.169 13.713 8.169 13.603C8.169 13.493 8.19105 13.3841 8.23386 13.2827C8.27666 13.1814 8.33935 13.0897 8.41822 13.013L15.6912 5.87998C15.927 5.64967 16.1144 5.37449 16.2422 5.07065C16.37 4.76681 16.4357 4.44047 16.4354 4.11085C16.4351 3.78122 16.3689 3.45499 16.2405 3.15137C16.1122 2.84775 15.9244 2.57289 15.6882 2.34298Z" fill="black" fill-opacity="0.2"/>
<path fill-rule="evenodd" clip-rule="evenodd" d="M15.6882 2.34298C15.205 1.87274 14.5574 1.60963 13.8832 1.60963C13.209 1.60963 12.5614 1.87274 12.0782 2.34298L2.45222 11.783C2.29113 11.9395 2.07535 12.0271 1.85072 12.0271C1.62608 12.0271 1.4103 11.9395 1.24922 11.783C1.17035 11.7063 1.10766 11.6146 1.06486 11.5132C1.02205 11.4119 1 11.303 1 11.193C1 11.083 1.02205 10.9741 1.06486 10.8727C1.10766 10.7714 1.17035 10.6797 1.24922 10.603L10.8752 1.16298C11.6804 0.379372 12.7596 -0.059082 13.8832 -0.059082C15.0068 -0.059082 16.086 0.379372 16.8912 1.16298C17.3571 1.61608 17.7091 2.17308 17.9184 2.78837C18.1277 3.40366 18.1883 4.05977 18.0952 4.70298C18.747 4.61028 19.4113 4.66847 20.037 4.87305C20.6627 5.07764 21.2331 5.42315 21.7042 5.88298L21.7542 5.93298C22.1485 6.31646 22.462 6.7751 22.676 7.28179C22.89 7.78848 23.0003 8.33294 23.0003 8.88298C23.0003 9.43302 22.89 9.97748 22.676 10.4842C22.462 10.9909 22.1485 11.4495 21.7542 11.833L13.0482 20.37C13.0219 20.3955 13.001 20.4261 12.9868 20.4598C12.9725 20.4936 12.9652 20.5298 12.9652 20.5665C12.9652 20.6031 12.9725 20.6394 12.9868 20.6731C13.001 20.7069 13.0219 20.7374 13.0482 20.763L14.8362 22.517C14.9151 22.5937 14.9778 22.6854 15.0206 22.7867C15.0634 22.8881 15.0854 22.997 15.0854 23.107C15.0854 23.217 15.0634 23.3259 15.0206 23.4272C14.9778 23.5286 14.9151 23.6203 14.8362 23.697C14.6751 23.8535 14.4594 23.9411 14.2347 23.9411C14.0101 23.9411 13.7943 23.8535 13.6332 23.697L11.8452 21.944C11.6611 21.765 11.5147 21.551 11.4147 21.3144C11.3147 21.0779 11.2632 20.8238 11.2632 20.567C11.2632 20.3102 11.3147 20.056 11.4147 19.8195C11.5147 19.583 11.6611 19.3689 11.8452 19.19L20.5512 10.652C20.7877 10.4218 20.9756 10.1466 21.104 9.84261C21.2323 9.5386 21.2984 9.21196 21.2984 8.88198C21.2984 8.552 21.2323 8.22536 21.104 7.92135C20.9756 7.61735 20.7877 7.34214 20.5512 7.11198L20.5012 7.06298C20.0186 6.59324 19.3718 6.33015 18.6983 6.32959C18.0248 6.32902 17.3776 6.59104 16.8942 7.05998L9.72222 14.094L9.72022 14.096L9.62222 14.193C9.46109 14.3498 9.24509 14.4376 9.02022 14.4376C8.79534 14.4376 8.57934 14.3498 8.41822 14.193C8.33935 14.1163 8.27666 14.0246 8.23386 13.9232C8.19105 13.8219 8.169 13.713 8.169 13.603C8.169 13.493 8.19105 13.3841 8.23386 13.2827C8.27666 13.1814 8.33935 13.0897 8.41822 13.013L15.6912 5.87998C15.927 5.64967 16.1144 5.37449 16.2422 5.07065C16.37 4.76681 16.4357 4.44047 16.4354 4.11085C16.4351 3.78122 16.3689 3.45499 16.2405 3.15137C16.1122 2.84775 15.9244 2.57289 15.6882 2.34298Z" fill="black" fill-opacity="0.2"/>
<path fill-rule="evenodd" clip-rule="evenodd" d="M15.6882 2.34298C15.205 1.87274 14.5574 1.60963 13.8832 1.60963C13.209 1.60963 12.5614 1.87274 12.0782 2.34298L2.45222 11.783C2.29113 11.9395 2.07535 12.0271 1.85072 12.0271C1.62608 12.0271 1.4103 11.9395 1.24922 11.783C1.17035 11.7063 1.10766 11.6146 1.06486 11.5132C1.02205 11.4119 1 11.303 1 11.193C1 11.083 1.02205 10.9741 1.06486 10.8727C1.10766 10.7714 1.17035 10.6797 1.24922 10.603L10.8752 1.16298C11.6804 0.379372 12.7596 -0.059082 13.8832 -0.059082C15.0068 -0.059082 16.086 0.379372 16.8912 1.16298C17.3571 1.61608 17.7091 2.17308 17.9184 2.78837C18.1277 3.40366 18.1883 4.05977 18.0952 4.70298C18.747 4.61028 19.4113 4.66847 20.037 4.87305C20.6627 5.07764 21.2331 5.42315 21.7042 5.88298L21.7542 5.93298C22.1485 6.31646 22.462 6.7751 22.676 7.28179C22.89 7.78848 23.0003 8.33294 23.0003 8.88298C23.0003 9.43302 22.89 9.97748 22.676 10.4842C22.462 10.9909 22.1485 11.4495 21.7542 11.833L13.0482 20.37C13.0219 20.3955 13.001 20.4261 12.9868 20.4598C12.9725 20.4936 12.9652 20.5298 12.9652 20.5665C12.9652 20.6031 12.9725 20.6394 12.9868 20.6731C13.001 20.7069 13.0219 20.7374 13.0482 20.763L14.8362 22.517C14.9151 22.5937 14.9778 22.6854 15.0206 22.7867C15.0634 22.8881 15.0854 22.997 15.0854 23.107C15.0854 23.217 15.0634 23.3259 15.0206 23.4272C14.9778 23.5286 14.9151 23.6203 14.8362 23.697C14.6751 23.8535 14.4594 23.9411 14.2347 23.9411C14.0101 23.9411 13.7943 23.8535 13.6332 23.697L11.8452 21.944C11.6611 21.765 11.5147 21.551 11.4147 21.3144C11.3147 21.0779 11.2632 20.8238 11.2632 20.567C11.2632 20.3102 11.3147 20.056 11.4147 19.8195C11.5147 19.583 11.6611 19.3689 11.8452 19.19L20.5512 10.652C20.7877 10.4218 20.9756 10.1466 21.104 9.84261C21.2323 9.5386 21.2984 9.21196 21.2984 8.88198C21.2984 8.552 21.2323 8.22536 21.104 7.92135C20.9756 7.61735 20.7877 7.34214 20.5512 7.11198L20.5012 7.06298C20.0186 6.59324 19.3718 6.33015 18.6983 6.32959C18.0248 6.32902 17.3776 6.59104 16.8942 7.05998L9.72222 14.094L9.72022 14.096L9.62222 14.193C9.46109 14.3498 9.24509 14.4376 9.02022 14.4376C8.79534 14.4376 8.57934 14.3498 8.41822 14.193C8.33935 14.1163 8.27666 14.0246 8.23386 13.9232C8.19105 13.8219 8.169 13.713 8.169 13.603C8.169 13.493 8.19105 13.3841 8.23386 13.2827C8.27666 13.1814 8.33935 13.0897 8.41822 13.013L15.6912 5.87998C15.927 5.64967 16.1144 5.37449 16.2422 5.07065C16.37 4.76681 16.4357 4.44047 16.4354 4.11085C16.4351 3.78122 16.3689 3.45499 16.2405 3.15137C16.1122 2.84775 15.9244 2.57289 15.6882 2.34298Z" fill="black" fill-opacity="0.2"/>
<path fill-rule="evenodd" clip-rule="evenodd" d="M15.6882 2.34298C15.205 1.87274 14.5574 1.60963 13.8832 1.60963C13.209 1.60963 12.5614 1.87274 12.0782 2.34298L2.45222 11.783C2.29113 11.9395 2.07535 12.0271 1.85072 12.0271C1.62608 12.0271 1.4103 11.9395 1.24922 11.783C1.17035 11.7063 1.10766 11.6146 1.06486 11.5132C1.02205 11.4119 1 11.303 1 11.193C1 11.083 1.02205 10.9741 1.06486 10.8727C1.10766 10.7714 1.17035 10.6797 1.24922 10.603L10.8752 1.16298C11.6804 0.379372 12.7596 -0.059082 13.8832 -0.059082C15.0068 -0.059082 16.086 0.379372 16.8912 1.16298C17.3571 1.61608 17.7091 2.17308 17.9184 2.78837C18.1277 3.40366 18.1883 4.05977 18.0952 4.70298C18.747 4.61028 19.4113 4.66847 20.037 4.87305C20.6627 5.07764 21.2331 5.42315 21.7042 5.88298L21.7542 5.93298C22.1485 6.31646 22.462 6.7751 22.676 7.28179C22.89 7.78848 23.0003 8.33294 23.0003 8.88298C23.0003 9.43302 22.89 9.97748 22.676 10.4842C22.462 10.9909 22.1485 11.4495 21.7542 11.833L13.0482 20.37C13.0219 20.3955 13.001 20.4261 12.9868 20.4598C12.9725 20.4936 12.9652 20.5298 12.9652 20.5665C12.9652 20.6031 12.9725 20.6394 12.9868 20.6731C13.001 20.7069 13.0219 20.7374 13.0482 20.763L14.8362 22.517C14.9151 22.5937 14.9778 22.6854 15.0206 22.7867C15.0634 22.8881 15.0854 22.997 15.0854 23.107C15.0854 23.217 15.0634 23.3259 15.0206 23.4272C14.9778 23.5286 14.9151 23.6203 14.8362 23.697C14.6751 23.8535 14.4594 23.9411 14.2347 23.9411C14.0101 23.9411 13.7943 23.8535 13.6332 23.697L11.8452 21.944C11.6611 21.765 11.5147 21.551 11.4147 21.3144C11.3147 21.0779 11.2632 20.8238 11.2632 20.567C11.2632 20.3102 11.3147 20.056 11.4147 19.8195C11.5147 19.583 11.6611 19.3689 11.8452 19.19L20.5512 10.652C20.7877 10.4218 20.9756 10.1466 21.104 9.84261C21.2323 9.5386 21.2984 9.21196 21.2984 8.88198C21.2984 8.552 21.2323 8.22536 21.104 7.92135C20.9756 7.61735 20.7877 7.34214 20.5512 7.11198L20.5012 7.06298C20.0186 6.59324 19.3718 6.33015 18.6983 6.32959C18.0248 6.32902 17.3776 6.59104 16.8942 7.05998L9.72222 14.094L9.72022 14.096L9.62222 14.193C9.46109 14.3498 9.24509 14.4376 9.02022 14.4376C8.79534 14.4376 8.57934 14.3498 8.41822 14.193C8.33935 14.1163 8.27666 14.0246 8.23386 13.9232C8.19105 13.8219 8.169 13.713 8.169 13.603C8.169 13.493 8.19105 13.3841 8.23386 13.2827C8.27666 13.1814 8.33935 13.0897 8.41822 13.013L15.6912 5.87998C15.927 5.64967 16.1144 5.37449 16.2422 5.07065C16.37 4.76681 16.4357 4.44047 16.4354 4.11085C16.4351 3.78122 16.3689 3.45499 16.2405 3.15137C16.1122 2.84775 15.9244 2.57289 15.6882 2.34298Z" fill="black" fill-opacity="0.2"/>
<path fill-rule="evenodd" clip-rule="evenodd" d="M15.6882 2.34298C15.205 1.87274 14.5574 1.60963 13.8832 1.60963C13.209 1.60963 12.5614 1.87274 12.0782 2.34298L2.45222 11.783C2.29113 11.9395 2.07535 12.0271 1.85072 12.0271C1.62608 12.0271 1.4103 11.9395 1.24922 11.783C1.17035 11.7063 1.10766 11.6146 1.06486 11.5132C1.02205 11.4119 1 11.303 1 11.193C1 11.083 1.02205 10.9741 1.06486 10.8727C1.10766 10.7714 1.17035 10.6797 1.24922 10.603L10.8752 1.16298C11.6804 0.379372 12.7596 -0.059082 13.8832 -0.059082C15.0068 -0.059082 16.086 0.379372 16.8912 1.16298C17.3571 1.61608 17.7091 2.17308 17.9184 2.78837C18.1277 3.40366 18.1883 4.05977 18.0952 4.70298C18.747 4.61028 19.4113 4.66847 20.037 4.87305C20.6627 5.07764 21.2331 5.42315 21.7042 5.88298L21.7542 5.93298C22.1485 6.31646 22.462 6.7751 22.676 7.28179C22.89 7.78848 23.0003 8.33294 23.0003 8.88298C23.0003 9.43302 22.89 9.97748 22.676 10.4842C22.462 10.9909 22.1485 11.4495 21.7542 11.833L13.0482 20.37C13.0219 20.3955 13.001 20.4261 12.9868 20.4598C12.9725 20.4936 12.9652 20.5298 12.9652 20.5665C12.9652 20.6031 12.9725 20.6394 12.9868 20.6731C13.001 20.7069 13.0219 20.7374 13.0482 20.763L14.8362 22.517C14.9151 22.5937 14.9778 22.6854 15.0206 22.7867C15.0634 22.8881 15.0854 22.997 15.0854 23.107C15.0854 23.217 15.0634 23.3259 15.0206 23.4272C14.9778 23.5286 14.9151 23.6203 14.8362 23.697C14.6751 23.8535 14.4594 23.9411 14.2347 23.9411C14.0101 23.9411 13.7943 23.8535 13.6332 23.697L11.8452 21.944C11.6611 21.765 11.5147 21.551 11.4147 21.3144C11.3147 21.0779 11.2632 20.8238 11.2632 20.567C11.2632 20.3102 11.3147 20.056 11.4147 19.8195C11.5147 19.583 11.6611 19.3689 11.8452 19.19L20.5512 10.652C20.7877 10.4218 20.9756 10.1466 21.104 9.84261C21.2323 9.5386 21.2984 9.21196 21.2984 8.88198C21.2984 8.552 21.2323 8.22536 21.104 7.92135C20.9756 7.61735 20.7877 7.34214 20.5512 7.11198L20.5012 7.06298C20.0186 6.59324 19.3718 6.33015 18.6983 6.32959C18.0248 6.32902 17.3776 6.59104 16.8942 7.05998L9.72222 14.094L9.72022 14.096L9.62222 14.193C9.46109 14.3498 9.24509 14.4376 9.02022 14.4376C8.79534 14.4376 8.57934 14.3498 8.41822 14.193C8.33935 14.1163 8.27666 14.0246 8.23386 13.9232C8.19105 13.8219 8.169 13.713 8.169 13.603C8.169 13.493 8.19105 13.3841 8.23386 13.2827C8.27666 13.1814 8.33935 13.0897 8.41822 13.013L15.6912 5.87998C15.927 5.64967 16.1144 5.37449 16.2422 5.07065C16.37 4.76681 16.4357 4.44047 16.4354 4.11085C16.4351 3.78122 16.3689 3.45499 16.2405 3.15137C16.1122 2.84775 15.9244 2.57289 15.6882 2.34298Z" fill="black" fill-opacity="0.2"/>
<path fill-rule="evenodd" clip-rule="evenodd" d="M15.6882 2.34298C15.205 1.87274 14.5574 1.60963 13.8832 1.60963C13.209 1.60963 12.5614 1.87274 12.0782 2.34298L2.45222 11.783C2.29113 11.9395 2.07535 12.0271 1.85072 12.0271C1.62608 12.0271 1.4103 11.9395 1.24922 11.783C1.17035 11.7063 1.10766 11.6146 1.06486 11.5132C1.02205 11.4119 1 11.303 1 11.193C1 11.083 1.02205 10.9741 1.06486 10.8727C1.10766 10.7714 1.17035 10.6797 1.24922 10.603L10.8752 1.16298C11.6804 0.379372 12.7596 -0.059082 13.8832 -0.059082C15.0068 -0.059082 16.086 0.379372 16.8912 1.16298C17.3571 1.61608 17.7091 2.17308 17.9184 2.78837C18.1277 3.40366 18.1883 4.05977 18.0952 4.70298C18.747 4.61028 19.4113 4.66847 20.037 4.87305C20.6627 5.07764 21.2331 5.42315 21.7042 5.88298L21.7542 5.93298C22.1485 6.31646 22.462 6.7751 22.676 7.28179C22.89 7.78848 23.0003 8.33294 23.0003 8.88298C23.0003 9.43302 22.89 9.97748 22.676 10.4842C22.462 10.9909 22.1485 11.4495 21.7542 11.833L13.0482 20.37C13.0219 20.3955 13.001 20.4261 12.9868 20.4598C12.9725 20.4936 12.9652 20.5298 12.9652 20.5665C12.9652 20.6031 12.9725 20.6394 12.9868 20.6731C13.001 20.7069 13.0219 20.7374 13.0482 20.763L14.8362 22.517C14.9151 22.5937 14.9778 22.6854 15.0206 22.7867C15.0634 22.8881 15.0854 22.997 15.0854 23.107C15.0854 23.217 15.0634 23.3259 15.0206 23.4272C14.9778 23.5286 14.9151 23.6203 14.8362 23.697C14.6751 23.8535 14.4594 23.9411 14.2347 23.9411C14.0101 23.9411 13.7943 23.8535 13.6332 23.697L11.8452 21.944C11.6611 21.765 11.5147 21.551 11.4147 21.3144C11.3147 21.0779 11.2632 20.8238 11.2632 20.567C11.2632 20.3102 11.3147 20.056 11.4147 19.8195C11.5147 19.583 11.6611 19.3689 11.8452 19.19L20.5512 10.652C20.7877 10.4218 20.9756 10.1466 21.104 9.84261C21.2323 9.5386 21.2984 9.21196 21.2984 8.88198C21.2984 8.552 21.2323 8.22536 21.104 7.92135C20.9756 7.61735 20.7877 7.34214 20.5512 7.11198L20.5012 7.06298C20.0186 6.59324 19.3718 6.33015 18.6983 6.32959C18.0248 6.32902 17.3776 6.59104 16.8942 7.05998L9.72222 14.094L9.72022 14.096L9.62222 14.193C9.46109 14.3498 9.24509 14.4376 9.02022 14.4376C8.79534 14.4376 8.57934 14.3498 8.41822 14.193C8.33935 14.1163 8.27666 14.0246 8.23386 13.9232C8.19105 13.8219 8.169 13.713 8.169 13.603C8.169 13.493 8.19105 13.3841 8.23386 13.2827C8.27666 13.1814 8.33935 13.0897 8.41822 13.013L15.6912 5.87998C15.927 5.64967 16.1144 5.37449 16.2422 5.07065C16.37 4.76681 16.4357 4.44047 16.4354 4.11085C16.4351 3.78122 16.3689 3.45499 16.2405 3.15137C16.1122 2.84775 15.9244 2.57289 15.6882 2.34298Z" fill="black" fill-opacity="0.2"/>
<path fill-rule="evenodd" clip-rule="evenodd" d="M14.4851 4.70296C14.564 4.62627 14.6266 4.53454 14.6694 4.4332C14.7123 4.33186 14.7343 4.22297 14.7343 4.11296C14.7343 4.00296 14.7123 3.89406 14.6694 3.79273C14.6266 3.69139 14.564 3.59966 14.4851 3.52296C14.324 3.3661 14.108 3.27832 13.8831 3.27832C13.6582 3.27832 13.4422 3.3661 13.2811 3.52296L6.16209 10.505C5.76777 10.8884 5.45434 11.3471 5.24031 11.8538C5.02629 12.3605 4.91602 12.9049 4.91602 13.455C4.91602 14.005 5.02629 14.5495 5.24031 15.0562C5.45434 15.5628 5.76777 16.0215 6.16209 16.405C6.96743 17.1883 8.0466 17.6266 9.17009 17.6266C10.2936 17.6266 11.3728 17.1883 12.1781 16.405L19.2981 9.42296C19.377 9.34627 19.4396 9.25454 19.4824 9.1532C19.5253 9.05186 19.5473 8.94297 19.5473 8.83296C19.5473 8.72296 19.5253 8.61406 19.4824 8.51273C19.4396 8.41139 19.377 8.31966 19.2981 8.24296C19.137 8.0861 18.921 7.99832 18.6961 7.99832C18.4712 7.99832 18.2552 8.0861 18.0941 8.24296L10.9751 15.225C10.4919 15.6952 9.84431 15.9583 9.17009 15.9583C8.49587 15.9583 7.84826 15.6952 7.36509 15.225C7.12862 14.9948 6.94067 14.7196 6.81234 14.4156C6.684 14.1116 6.61788 13.7849 6.61788 13.455C6.61788 13.125 6.684 12.7983 6.81234 12.4943C6.94067 12.1903 7.12862 11.9151 7.36509 11.685L14.4851 4.70296Z" fill="#1F1F1F"/>
<path fill-rule="evenodd" clip-rule="evenodd" d="M14.4851 4.70296C14.564 4.62627 14.6266 4.53454 14.6694 4.4332C14.7123 4.33186 14.7343 4.22297 14.7343 4.11296C14.7343 4.00296 14.7123 3.89406 14.6694 3.79273C14.6266 3.69139 14.564 3.59966 14.4851 3.52296C14.324 3.3661 14.108 3.27832 13.8831 3.27832C13.6582 3.27832 13.4422 3.3661 13.2811 3.52296L6.16209 10.505C5.76777 10.8884 5.45434 11.3471 5.24031 11.8538C5.02629 12.3605 4.91602 12.9049 4.91602 13.455C4.91602 14.005 5.02629 14.5495 5.24031 15.0562C5.45434 15.5628 5.76777 16.0215 6.16209 16.405C6.96743 17.1883 8.0466 17.6266 9.17009 17.6266C10.2936 17.6266 11.3728 17.1883 12.1781 16.405L19.2981 9.42296C19.377 9.34627 19.4396 9.25454 19.4824 9.1532C19.5253 9.05186 19.5473 8.94297 19.5473 8.83296C19.5473 8.72296 19.5253 8.61406 19.4824 8.51273C19.4396 8.41139 19.377 8.31966 19.2981 8.24296C19.137 8.0861 18.921 7.99832 18.6961 7.99832C18.4712 7.99832 18.2552 8.0861 18.0941 8.24296L10.9751 15.225C10.4919 15.6952 9.84431 15.9583 9.17009 15.9583C8.49587 15.9583 7.84826 15.6952 7.36509 15.225C7.12862 14.9948 6.94067 14.7196 6.81234 14.4156C6.684 14.1116 6.61788 13.7849 6.61788 13.455C6.61788 13.125 6.684 12.7983 6.81234 12.4943C6.94067 12.1903 7.12862 11.9151 7.36509 11.685L14.4851 4.70296Z" fill="black" fill-opacity="0.2"/>
<path fill-rule="evenodd" clip-rule="evenodd" d="M14.4851 4.70296C14.564 4.62627 14.6266 4.53454 14.6694 4.4332C14.7123 4.33186 14.7343 4.22297 14.7343 4.11296C14.7343 4.00296 14.7123 3.89406 14.6694 3.79273C14.6266 3.69139 14.564 3.59966 14.4851 3.52296C14.324 3.3661 14.108 3.27832 13.8831 3.27832C13.6582 3.27832 13.4422 3.3661 13.2811 3.52296L6.16209 10.505C5.76777 10.8884 5.45434 11.3471 5.24031 11.8538C5.02629 12.3605 4.91602 12.9049 4.91602 13.455C4.91602 14.005 5.02629 14.5495 5.24031 15.0562C5.45434 15.5628 5.76777 16.0215 6.16209 16.405C6.96743 17.1883 8.0466 17.6266 9.17009 17.6266C10.2936 17.6266 11.3728 17.1883 12.1781 16.405L19.2981 9.42296C19.377 9.34627 19.4396 9.25454 19.4824 9.1532C19.5253 9.05186 19.5473 8.94297 19.5473 8.83296C19.5473 8.72296 19.5253 8.61406 19.4824 8.51273C19.4396 8.41139 19.377 8.31966 19.2981 8.24296C19.137 8.0861 18.921 7.99832 18.6961 7.99832C18.4712 7.99832 18.2552 8.0861 18.0941 8.24296L10.9751 15.225C10.4919 15.6952 9.84431 15.9583 9.17009 15.9583C8.49587 15.9583 7.84826 15.6952 7.36509 15.225C7.12862 14.9948 6.94067 14.7196 6.81234 14.4156C6.684 14.1116 6.61788 13.7849 6.61788 13.455C6.61788 13.125 6.684 12.7983 6.81234 12.4943C6.94067 12.1903 7.12862 11.9151 7.36509 11.685L14.4851 4.70296Z" fill="black" fill-opacity="0.2"/>
<path fill-rule="evenodd" clip-rule="evenodd" d="M14.4851 4.70296C14.564 4.62627 14.6266 4.53454 14.6694 4.4332C14.7123 4.33186 14.7343 4.22297 14.7343 4.11296C14.7343 4.00296 14.7123 3.89406 14.6694 3.79273C14.6266 3.69139 14.564 3.59966 14.4851 3.52296C14.324 3.3661 14.108 3.27832 13.8831 3.27832C13.6582 3.27832 13.4422 3.3661 13.2811 3.52296L6.16209 10.505C5.76777 10.8884 5.45434 11.3471 5.24031 11.8538C5.02629 12.3605 4.91602 12.9049 4.91602 13.455C4.91602 14.005 5.02629 14.5495 5.24031 15.0562C5.45434 15.5628 5.76777 16.0215 6.16209 16.405C6.96743 17.1883 8.0466 17.6266 9.17009 17.6266C10.2936 17.6266 11.3728 17.1883 12.1781 16.405L19.2981 9.42296C19.377 9.34627 19.4396 9.25454 19.4824 9.1532C19.5253 9.05186 19.5473 8.94297 19.5473 8.83296C19.5473 8.72296 19.5253 8.61406 19.4824 8.51273C19.4396 8.41139 19.377 8.31966 19.2981 8.24296C19.137 8.0861 18.921 7.99832 18.6961 7.99832C18.4712 7.99832 18.2552 8.0861 18.0941 8.24296L10.9751 15.225C10.4919 15.6952 9.84431 15.9583 9.17009 15.9583C8.49587 15.9583 7.84826 15.6952 7.36509 15.225C7.12862 14.9948 6.94067 14.7196 6.81234 14.4156C6.684 14.1116 6.61788 13.7849 6.61788 13.455C6.61788 13.125 6.684 12.7983 6.81234 12.4943C6.94067 12.1903 7.12862 11.9151 7.36509 11.685L14.4851 4.70296Z" fill="black" fill-opacity="0.2"/>
<path fill-rule="evenodd" clip-rule="evenodd" d="M14.4851 4.70296C14.564 4.62627 14.6266 4.53454 14.6694 4.4332C14.7123 4.33186 14.7343 4.22297 14.7343 4.11296C14.7343 4.00296 14.7123 3.89406 14.6694 3.79273C14.6266 3.69139 14.564 3.59966 14.4851 3.52296C14.324 3.3661 14.108 3.27832 13.8831 3.27832C13.6582 3.27832 13.4422 3.3661 13.2811 3.52296L6.16209 10.505C5.76777 10.8884 5.45434 11.3471 5.24031 11.8538C5.02629 12.3605 4.91602 12.9049 4.91602 13.455C4.91602 14.005 5.02629 14.5495 5.24031 15.0562C5.45434 15.5628 5.76777 16.0215 6.16209 16.405C6.96743 17.1883 8.0466 17.6266 9.17009 17.6266C10.2936 17.6266 11.3728 17.1883 12.1781 16.405L19.2981 9.42296C19.377 9.34627 19.4396 9.25454 19.4824 9.1532C19.5253 9.05186 19.5473 8.94297 19.5473 8.83296C19.5473 8.72296 19.5253 8.61406 19.4824 8.51273C19.4396 8.41139 19.377 8.31966 19.2981 8.24296C19.137 8.0861 18.921 7.99832 18.6961 7.99832C18.4712 7.99832 18.2552 8.0861 18.0941 8.24296L10.9751 15.225C10.4919 15.6952 9.84431 15.9583 9.17009 15.9583C8.49587 15.9583 7.84826 15.6952 7.36509 15.225C7.12862 14.9948 6.94067 14.7196 6.81234 14.4156C6.684 14.1116 6.61788 13.7849 6.61788 13.455C6.61788 13.125 6.684 12.7983 6.81234 12.4943C6.94067 12.1903 7.12862 11.9151 7.36509 11.685L14.4851 4.70296Z" fill="black" fill-opacity="0.2"/>
<path fill-rule="evenodd" clip-rule="evenodd" d="M14.4851 4.70296C14.564 4.62627 14.6266 4.53454 14.6694 4.4332C14.7123 4.33186 14.7343 4.22297 14.7343 4.11296C14.7343 4.00296 14.7123 3.89406 14.6694 3.79273C14.6266 3.69139 14.564 3.59966 14.4851 3.52296C14.324 3.3661 14.108 3.27832 13.8831 3.27832C13.6582 3.27832 13.4422 3.3661 13.2811 3.52296L6.16209 10.505C5.76777 10.8884 5.45434 11.3471 5.24031 11.8538C5.02629 12.3605 4.91602 12.9049 4.91602 13.455C4.91602 14.005 5.02629 14.5495 5.24031 15.0562C5.45434 15.5628 5.76777 16.0215 6.16209 16.405C6.96743 17.1883 8.0466 17.6266 9.17009 17.6266C10.2936 17.6266 11.3728 17.1883 12.1781 16.405L19.2981 9.42296C19.377 9.34627 19.4396 9.25454 19.4824 9.1532C19.5253 9.05186 19.5473 8.94297 19.5473 8.83296C19.5473 8.72296 19.5253 8.61406 19.4824 8.51273C19.4396 8.41139 19.377 8.31966 19.2981 8.24296C19.137 8.0861 18.921 7.99832 18.6961 7.99832C18.4712 7.99832 18.2552 8.0861 18.0941 8.24296L10.9751 15.225C10.4919 15.6952 9.84431 15.9583 9.17009 15.9583C8.49587 15.9583 7.84826 15.6952 7.36509 15.225C7.12862 14.9948 6.94067 14.7196 6.81234 14.4156C6.684 14.1116 6.61788 13.7849 6.61788 13.455C6.61788 13.125 6.684 12.7983 6.81234 12.4943C6.94067 12.1903 7.12862 11.9151 7.36509 11.685L14.4851 4.70296Z" fill="black" fill-opacity="0.2"/>
<path fill-rule="evenodd" clip-rule="evenodd" d="M14.4851 4.70296C14.564 4.62627 14.6266 4.53454 14.6694 4.4332C14.7123 4.33186 14.7343 4.22297 14.7343 4.11296C14.7343 4.00296 14.7123 3.89406 14.6694 3.79273C14.6266 3.69139 14.564 3.59966 14.4851 3.52296C14.324 3.3661 14.108 3.27832 13.8831 3.27832C13.6582 3.27832 13.4422 3.3661 13.2811 3.52296L6.16209 10.505C5.76777 10.8884 5.45434 11.3471 5.24031 11.8538C5.02629 12.3605 4.91602 12.9049 4.91602 13.455C4.91602 14.005 5.02629 14.5495 5.24031 15.0562C5.45434 15.5628 5.76777 16.0215 6.16209 16.405C6.96743 17.1883 8.0466 17.6266 9.17009 17.6266C10.2936 17.6266 11.3728 17.1883 12.1781 16.405L19.2981 9.42296C19.377 9.34627 19.4396 9.25454 19.4824 9.1532C19.5253 9.05186 19.5473 8.94297 19.5473 8.83296C19.5473 8.72296 19.5253 8.61406 19.4824 8.51273C19.4396 8.41139 19.377 8.31966 19.2981 8.24296C19.137 8.0861 18.921 7.99832 18.6961 7.99832C18.4712 7.99832 18.2552 8.0861 18.0941 8.24296L10.9751 15.225C10.4919 15.6952 9.84431 15.9583 9.17009 15.9583C8.49587 15.9583 7.84826 15.6952 7.36509 15.225C7.12862 14.9948 6.94067 14.7196 6.81234 14.4156C6.684 14.1116 6.61788 13.7849 6.61788 13.455C6.61788 13.125 6.684 12.7983 6.81234 12.4943C6.94067 12.1903 7.12862 11.9151 7.36509 11.685L14.4851 4.70296Z" fill="black" fill-opacity="0.2"/>
</g>
<defs>
<clipPath id="clip0_2324_15647">
<rect width="24" height="24" fill="white"/>
</clipPath>
</defs>
</svg>
