<svg width="107" height="24" viewBox="0 0 107 24" fill="none" xmlns="http://www.w3.org/2000/svg">
<path d="M11.217 19.384C11.5028 20.1537 12.05 20.7984 12.7629 21.2055C13.4758 21.6126 14.3092 21.7562 15.1173 21.6112C15.9253 21.4662 16.6568 21.0419 17.1837 20.4123C17.7106 19.7827 17.9996 18.988 18 18.167V13L12 9.65002" stroke="black" stroke-width="2" stroke-linecap="round" stroke-linejoin="round"/>
<path d="M5.21402 15.014C4.68998 15.6464 4.40491 16.4428 4.40867 17.264C4.41242 18.0853 4.70476 18.879 5.23455 19.5066C5.76434 20.1341 6.49787 20.5553 7.30685 20.6967C8.11584 20.8381 8.94878 20.6906 9.66002 20.28L14 17.746V10.8" stroke="black" stroke-width="2" stroke-linecap="round" stroke-linejoin="round"/>
<path d="M6 7.63001C4.609 7.39401 3.213 8.02501 2.466 9.31901C2.00546 10.1168 1.88063 11.0649 2.11898 11.9547C2.35733 12.8445 2.93933 13.6032 3.737 14.064L8 16.578L14 13.23" stroke="black" stroke-width="2" stroke-linecap="round" stroke-linejoin="round"/>
<path d="M12.783 4.61595C12.4972 3.84632 11.95 3.20161 11.2371 2.79451C10.5241 2.3874 9.6908 2.24379 8.88273 2.38877C8.07465 2.53376 7.34322 2.95812 6.81629 3.58768C6.28935 4.21724 6.00042 5.01197 6 5.83295V10.8999L12 14.3499" stroke="black" stroke-width="2" stroke-linecap="round" stroke-linejoin="round"/>
<path d="M18.786 8.98596C19.31 8.35364 19.5951 7.55722 19.5913 6.73598C19.5876 5.91474 19.2953 5.12096 18.7655 4.49346C18.2357 3.86595 17.5021 3.44466 16.6932 3.30326C15.8842 3.16187 15.0512 3.30937 14.34 3.71996L10 6.25396V13.2" stroke="black" stroke-width="2" stroke-linecap="round" stroke-linejoin="round"/>
<path d="M18 16.302C19.391 16.538 20.787 15.907 21.534 14.613C21.9945 13.8152 22.1194 12.8671 21.881 11.9773C21.6427 11.0875 21.0607 10.3288 20.263 9.868L15.955 7.354L10 10.774" stroke="black" stroke-width="2" stroke-linecap="round" stroke-linejoin="round"/>
<path d="M43.794 18.342C42.606 18.342 41.574 18.132 40.698 17.712C39.834 17.292 39.114 16.746 38.538 16.074C37.974 15.39 37.548 14.658 37.26 13.878C36.984 13.086 36.846 12.324 36.846 11.592V11.196C36.846 10.392 36.99 9.594 37.278 8.802C37.566 7.998 37.998 7.272 38.574 6.624C39.162 5.976 39.888 5.46 40.752 5.076C41.616 4.68 42.63 4.482 43.794 4.482C44.946 4.482 45.954 4.68 46.818 5.076C47.682 5.46 48.402 5.976 48.978 6.624C49.566 7.272 50.004 7.998 50.292 8.802C50.58 9.594 50.724 10.392 50.724 11.196V11.592C50.724 12.324 50.58 13.086 50.292 13.878C50.016 14.658 49.59 15.39 49.014 16.074C48.45 16.746 47.73 17.292 46.854 17.712C45.99 18.132 44.97 18.342 43.794 18.342ZM43.794 15.966C44.466 15.966 45.066 15.846 45.594 15.606C46.134 15.366 46.59 15.036 46.962 14.616C47.346 14.184 47.634 13.698 47.826 13.158C48.03 12.606 48.132 12.024 48.132 11.412C48.132 10.752 48.03 10.146 47.826 9.594C47.634 9.042 47.346 8.562 46.962 8.154C46.59 7.746 46.134 7.428 45.594 7.2C45.054 6.972 44.454 6.858 43.794 6.858C43.122 6.858 42.516 6.972 41.976 7.2C41.436 7.428 40.974 7.746 40.59 8.154C40.218 8.562 39.93 9.042 39.726 9.594C39.534 10.146 39.438 10.752 39.438 11.412C39.438 12.024 39.534 12.606 39.726 13.158C39.93 13.698 40.218 14.184 40.59 14.616C40.974 15.036 41.436 15.366 41.976 15.606C42.516 15.846 43.122 15.966 43.794 15.966ZM52.9962 21.6V8.226H54.9762V12.438L54.6702 12.42C54.7182 11.424 54.9222 10.59 55.2822 9.918C55.6542 9.246 56.1462 8.748 56.7582 8.424C57.3702 8.088 58.0542 7.92 58.8102 7.92C59.5062 7.92 60.1302 8.046 60.6822 8.298C61.2462 8.55 61.7262 8.904 62.1222 9.36C62.5302 9.816 62.8422 10.35 63.0582 10.962C63.2742 11.562 63.3822 12.21 63.3822 12.906V13.284C63.3822 13.992 63.2742 14.652 63.0582 15.264C62.8542 15.864 62.5482 16.398 62.1402 16.866C61.7442 17.322 61.2642 17.682 60.7002 17.946C60.1362 18.198 59.5062 18.324 58.8102 18.324C58.0782 18.324 57.4062 18.174 56.7942 17.874C56.1942 17.562 55.7082 17.088 55.3362 16.452C54.9642 15.804 54.7542 14.97 54.7062 13.95L55.4982 15.156V21.6H52.9962ZM58.1802 16.218C58.7202 16.218 59.1882 16.086 59.5842 15.822C59.9922 15.558 60.3102 15.192 60.5382 14.724C60.7662 14.244 60.8802 13.704 60.8802 13.104C60.8802 12.48 60.7662 11.94 60.5382 11.484C60.3102 11.028 59.9922 10.674 59.5842 10.422C59.1882 10.158 58.7202 10.026 58.1802 10.026C57.6882 10.026 57.2322 10.134 56.8122 10.35C56.4042 10.566 56.0682 10.884 55.8042 11.304C55.5522 11.724 55.4262 12.228 55.4262 12.816V13.536C55.4262 14.1 55.5582 14.58 55.8222 14.976C56.0862 15.372 56.4282 15.678 56.8482 15.894C57.2682 16.11 57.7122 16.218 58.1802 16.218ZM69.9562 18.342C69.1162 18.342 68.3782 18.198 67.7422 17.91C67.1182 17.622 66.5962 17.238 66.1762 16.758C65.7682 16.266 65.4562 15.72 65.2402 15.12C65.0362 14.52 64.9342 13.908 64.9342 13.284V12.942C64.9342 12.294 65.0362 11.67 65.2402 11.07C65.4562 10.458 65.7682 9.918 66.1762 9.45C66.5962 8.97 67.1122 8.592 67.7242 8.316C68.3362 8.028 69.0442 7.884 69.8482 7.884C70.9042 7.884 71.7862 8.118 72.4942 8.586C73.2142 9.042 73.7542 9.648 74.1142 10.404C74.4742 11.148 74.6542 11.952 74.6542 12.816V13.716H65.9962V12.186H73.0882L72.3142 12.942C72.3142 12.318 72.2242 11.784 72.0442 11.34C71.8642 10.896 71.5882 10.554 71.2162 10.314C70.8562 10.074 70.4002 9.954 69.8482 9.954C69.2962 9.954 68.8282 10.08 68.4442 10.332C68.0602 10.584 67.7662 10.95 67.5622 11.43C67.3702 11.898 67.2742 12.462 67.2742 13.122C67.2742 13.734 67.3702 14.28 67.5622 14.76C67.7542 15.228 68.0482 15.6 68.4442 15.876C68.8402 16.14 69.3442 16.272 69.9562 16.272C70.5682 16.272 71.0662 16.152 71.4502 15.912C71.8342 15.66 72.0802 15.354 72.1882 14.994H74.4922C74.3482 15.666 74.0722 16.254 73.6642 16.758C73.2562 17.262 72.7342 17.652 72.0982 17.928C71.4742 18.204 70.7602 18.342 69.9562 18.342ZM76.7443 18V8.226H78.7243V12.42H78.5443C78.5443 11.424 78.6763 10.596 78.9403 9.936C79.2043 9.264 79.5943 8.76 80.1103 8.424C80.6383 8.088 81.2923 7.92 82.0723 7.92H82.1803C83.3443 7.92 84.2263 8.298 84.8263 9.054C85.4263 9.798 85.7263 10.914 85.7263 12.402V18H83.2243V12.186C83.2243 11.586 83.0503 11.1 82.7023 10.728C82.3663 10.356 81.8983 10.17 81.2983 10.17C80.6863 10.17 80.1883 10.362 79.8043 10.746C79.4323 11.118 79.2463 11.622 79.2463 12.258V18H76.7443ZM87.3181 18L91.8001 4.86H95.9761L100.584 18H97.9561L94.0501 6.606L94.9681 7.002H92.7181L93.6541 6.606L89.8741 18H87.3181ZM90.4501 14.508L91.2601 12.348H96.5881L97.3801 14.508H90.4501ZM102.572 18V4.86H105.128V18H102.572Z" fill="black"/>
</svg>
